<?xml version="1.0" standalone="no"?>
<!DOCTYPE svg PUBLIC "-//W3C//DTD SVG 1.1//EN" "http://www.w3.org/Graphics/SVG/1.1/DTD/svg11.dtd" >
<svg xmlns="http://www.w3.org/2000/svg">
<metadata>
This is a custom SVG webfont generated by Font Squirrel.
Copyright   : Created by Phil Steinschneider philipspressroomcom Inspired by the original Blade Runner movie font Blade Runner is a trademark of the Blade Runner Partnership All rights reserved
</metadata>
<defs>
<font id="webfontyWbmYweA" horiz-adv-x="1497" >
<font-face units-per-em="2048" ascent="1638" descent="-410" />
<missing-glyph horiz-adv-x="1386" />
<glyph unicode=" "  horiz-adv-x="1386" />
<glyph unicode="&#x09;" horiz-adv-x="1386" />
<glyph unicode="&#xa0;" horiz-adv-x="1386" />
<glyph unicode="!" horiz-adv-x="1060" d="M1085 1415l-231 -837h-496l232 837h495zM1085 1415zM793 354l-99 -356h-495l98 356h496z" />
<glyph unicode="&#x22;" horiz-adv-x="1034" d="M371 1440h362l-215 -561h-364zM834 1440h362l-217 -561h-363z" />
<glyph unicode="#" horiz-adv-x="1370" d="M293 -20l123 423l-137 3l2 147h178l106 360h-182l-2 148l225 2l129 432l123 -2l-129 -430l260 -4l123 428h125l-125 -428l162 -2l2 -144l-207 -4l-104 -360l209 -2v-150l-252 2l-123 -426l-125 2l123 424l-258 4l-123 -426zM584 551l256 2l106 358l-258 2z" />
<glyph unicode="$" horiz-adv-x="1671" d="M676 608zM1511 1417l107 350l-500 -2l-114 -348q16 0 -19 0h-88h-70q-133 0 -260 -110q-119 -102 -161 -238h1357l95 348h-347zM1511 1417zM1020 -346h-504l90 342l-504 -2l117 401l789 -2q106 16 106 103q0 51 -14.5 69.5t-63.5 36.5l-403 -4q-133 0 -201 88 q-59 80 -59 215q0 29 2 62l934 -2q193 -27 266 -113l72 -86q37 -100 36 -230q0 -160 -57 -260q-117 -205 -375 -276l-143 -2z" />
<glyph unicode="%" horiz-adv-x="2080" d="M1405 344q0 -66 44 -111t112 -45q63 0 109 46.5t46 109.5q0 66 -45 111t-110 45q-68 0 -112 -45t-44 -111zM1190 344q0 160 105.5 266.5t265.5 106.5q156 0 264 -108.5t108 -264.5t-108.5 -264.5t-263.5 -108.5q-160 0 -265.5 106.5t-105.5 266.5zM608 -29l854 1473h160 l-854 -1473h-160zM518 1071q0 -66 44 -111t112 -45q63 0 109 45.5t46 110.5q0 66 -45 112t-110 46q-68 0 -112 -45t-44 -113zM303 1073q0 160 105.5 265.5t265.5 105.5q156 0 264.5 -107.5t108.5 -263.5t-110 -264.5t-263 -108.5q-160 0 -265.5 107.5t-105.5 265.5z" />
<glyph unicode="&#x26;" horiz-adv-x="1374" d="M487 645q-207 -92 -206 -229q0 -88 52 -143.5t140 -55.5q102 0 229 78zM885 0l-56 90q-186 -123 -397 -123q-193 0 -315.5 120t-122.5 310q0 160 115 277q84 86 258 168l-48 84q-66 115 -65 207q0 158 115 251q106 88 266 89q164 0 270 -84q117 -90 117 -250 q0 -242 -297 -381l170 -275q80 113 100 213h240q-49 -246 -207 -422l170 -274h-313zM604 954q160 80 160 199q0 111 -123 111q-129 0 -129 -113q0 -55 76 -170q4 -9 16 -27z" />
<glyph unicode="'" horiz-adv-x="491" d="M397 1440h363l-217 -561h-363z" />
<glyph unicode="(" horiz-adv-x="669" d="M582 -262q-373 0 -461 274q-23 68 -23 168q0 131 35 266l129 500h240l-125 -520q-35 -145 -35 -274q0 -100 20 -170q52 -160 220 -244zM530 1065q68 311 187 537q-154 0 -285 -197q-104 -160 -143 -340h241z" />
<glyph unicode=")" horiz-adv-x="622" d="M397 946h242l-137 -561q-61 -250 -174 -393q-195 -248 -574 -254q348 20 434 309q66 221 209 899zM424 1067h227q8 70 8 129q0 166 -59 272q-74 129 -225 136q80 -115 80 -263q0 -53 -13 -137q-16 -108 -18 -137z" />
<glyph unicode="*" horiz-adv-x="1024" d="M555 889l-174 -248l-172 119l192 241l-278 78l65 203l267 -96v287h200v-287l267 94l67 -203l-280 -76l190 -239l-172 -125z" />
<glyph unicode="+" horiz-adv-x="1122" d="M1044 598l-325 -4l-115 -401l-248 -3l121 402h-330l80 262h332l123 399h240l-123 -397l331 -2z" />
<glyph unicode="," horiz-adv-x="565" d="M57 -336l33 107q162 8 213 229h-162l84 299h303l-79 -283q-49 -170 -132 -252q-94 -92 -260 -100z" />
<glyph unicode="-" horiz-adv-x="1136" d="M1006 500h-918l72 260h919z" />
<glyph unicode="." horiz-adv-x="614" d="M102 0l86 299h312l-84 -299h-314z" />
<glyph unicode="/" horiz-adv-x="862" d="M205 -190l495 1701h138l-498 -1701h-135z" />
<glyph unicode="0" horiz-adv-x="1320" d="M819 1409l326 4q268 2 268 -278q0 -29 -2 -62h-1169q41 127 147 227q115 109 240 109h190zM565 498l17 55l108 383h-477l-104 -385q-29 -104 -29 -201q0 -82 22 -137q49 -125 197 -176q82 -29 233 -37l56 -2q545 23 678 510q10 41 43 162l67 264l-467 2l-116 -434 q-25 -92 -119 -96q-109 -4 -109 69v23z" />
<glyph unicode="1" horiz-adv-x="909" d="M846 936l-262 -938h-496l262 938h496zM881 1073h-633l219 340h504z" />
<glyph unicode="2" horiz-adv-x="1349" d="M1436 1073q0 127 -41 199q-78 141 -195 141h-502q-135 0 -261 -103.5t-171 -236.5h1170zM-27 -2l1180 2l98 348h-594q86 72 290 151t288 142q145 115 184 295h-518q2 -4 2 -10q0 -57 -213 -158q-315 -147 -444 -256q-253 -209 -273 -514z" />
<glyph unicode="3" horiz-adv-x="1353" d="M1448 1073q0 123 -39 199q-76 141 -199 141h-501q-135 0 -265 -106q-121 -100 -168 -234h1172zM698 571q197 0 197 -82q0 -47 -51 -90q-41 -35 -96 -51q-47 -14 -93 -14q-86 0 -86 65q0 18 9 41h-459q-25 -129 -13 -180q55 -262 345 -262h378q193 37 332 198.5t139 356.5 q0 115 -59 186q115 100 164 197h-784l-99 -365h176z" />
<glyph unicode="4" horiz-adv-x="1413" d="M342 1409l-100 -340h463l94 338zM1053 1407l-95 -338h463l92 338h-460zM668 -2l135 471l-715 -4l123 471h457l-31 -121h260l27 121h465l-254 -942z" />
<glyph unicode="5" horiz-adv-x="1376" d="M1372 1073h-1222l217 340h1108zM688 571q86 0 121 -8q74 -18 74 -78q0 -57 -42 -102t-102 -49q-43 -4 -67 -4q-119 0 -119 76q0 14 2 28l-459 2q-20 -129 -10 -176q53 -262 344 -262h404q92 14 198 82q94 59 137 115q106 137 129 313q2 25 2 47q0 123 -65 203 q-78 102 -181.5 140t-252.5 38h-557l-105 -361z" />
<glyph unicode="6" horiz-adv-x="1400" d="M1272 393q-123 -399 -498 -395l-397 2q-279 2 -279 295q0 213 156 641h463l-10 -43h280q330 0 330 -258q0 -99 -45 -242zM829 496q4 20 5 36q0 35 -29 46q-12 2 -80 6q-98 2 -125 -92l2 18l-2 -25q-6 -23 -6 -39q0 -41 39 -51q18 -4 72 -2q96 6 120 96zM1139 1411 q268 0 268 -278q0 -29 -4 -62h-1118q41 129 143 229q115 111 240 111h471z" />
<glyph unicode="7" horiz-adv-x="1120" d="M1180 1073h-1065l215 340h942zM1147 936q-106 -106 -209 -254q-96 -139 -137 -223q-61 -133 -82 -187q-49 -129 -80 -274h-467q55 244 164 461q162 317 346 477h465z" />
<glyph unicode="8" horiz-adv-x="1306" d="M1403 1073q0 123 -41 199q-74 141 -195 141h-503q-135 0 -261.5 -103.5t-166.5 -236.5h1167zM221 936q-4 -41 2 -68q14 -78 56 -123q-225 -190 -226 -426q0 -246 228 -321h501q188 37 328.5 202t140.5 355q0 111 -59 188q119 92 170 193h-1141zM725 569q121 0 121 -80 q0 -94 -144 -141q-45 -14 -92 -14q-123 0 -123 78q0 41 41 80q80 77 197 77z" />
<glyph unicode="9" horiz-adv-x="1318" d="M1145 1413q268 0 268 -278q0 -29 -4 -62h-1167q39 129 145 230q115 111 240 110h518zM793 496q-25 -88 -119 -97q-111 -8 -111 70q0 14 2 23l6 24h-473q-20 -106 -20 -176q0 -233 190 -309q74 -29 203 -31l199 -2q147 10 215 35q117 43 223 162q166 188 285 741h-1168 q-8 -68 -8 -74q0 -276 328 -272l274 4z" />
<glyph unicode=":" horiz-adv-x="776" d="M330 778l82 297h311l-82 -297h-311zM113 0l84 299h311l-84 -299h-311z" />
<glyph unicode=";" horiz-adv-x="827" d="M389 778l82 297h311l-82 -297h-311zM88 -338l37 107q162 8 219 231h-164l88 295h303l-82 -281q-100 -338 -401 -352z" />
<glyph unicode="&#x3c;" horiz-adv-x="1705" d="M1442 1194v-219l-893 -365l893 -364v-219l-1178 485v199z" />
<glyph unicode="=" horiz-adv-x="1243" d="M1122 426h-917l74 258h919zM1235 793h-920l74 260h918z" />
<glyph unicode="&#x3e;" horiz-adv-x="1705" d="M264 1194l1178 -483v-199l-1178 -485v219l895 364l-895 365v219z" />
<glyph unicode="?" horiz-adv-x="1347" d="M1251 846q-35 -27 -102 -53l-154 -62q-23 -8 -80 -49q-37 -41 -38 -45q-16 -23 -23 -57l-401 2q63 156 116 219q74 90 213 139q166 57 176 139q6 59 -49 95q-47 29 -108 28q-176 0 -234 -203h-389q111 475 672 476q205 0 352 -74q186 -96 187 -283q0 -106 -43 -174 q-15 -20 -95 -98zM717 0h-455l117 354h448z" />
<glyph unicode="@" horiz-adv-x="2048" d="M1167 272q-106 -164 -297 -163q-324 0 -323 340q0 225 127 387q137 176 356 176q160 0 236 -131l53 98h178l-147 -598q-6 -29 -7 -41q0 -70 95 -70q80 0 161 76q174 164 175 422q0 262 -207 414q-186 135 -457 135q-283 0 -483 -135q-352 -238 -353 -660q0 -326 222 -506 q207 -168 538 -168q332 0 604 191l82 -117q-307 -231 -682 -231q-391 0 -639 192q-309 238 -309 637q0 342 207 594q301 367 819 367q348 0 576 -174q268 -205 268 -543t-254 -543q-143 -115 -324 -115q-211 0 -215 166zM1217 700q-27 166 -175 166q-135 0 -215 -151 q-68 -125 -67 -271q0 -188 158 -188q92 0 159 70q61 63 86 157z" />
<glyph unicode="A" horiz-adv-x="1071" d="M942 1073l-76 340h-514l-303 -340h893zM508 580l145 -582h514l-196 938h-998l-309 -356h844z" />
<glyph unicode="B" horiz-adv-x="2680" d="M657 -440q12 6 13 18q0 10 -18.5 20.5t-49.5 30.5q0 100 8 127q23 -4 64 -2q2 8 8 21q6 -2 14 0q10 6 19.5 28.5t15.5 28.5q25 33 52.5 63.5t64.5 43.5q14 4 44 -8.5t56 -26.5q10 -12 19 -13q16 0 57 58q59 78 98 117l131 129q74 78 99 116l55 66q29 47 35 47 q4 0 23.5 -18.5t45.5 -34.5q0 -2 21.5 -14.5t21.5 -28.5l-58.5 -31.5t-55.5 -48.5q-43 -51 -72 -94q-2 -10 -18 -33l-23 -12q-23 -12 -37 -41q-4 -10 -1 -34t-5 -32q-26 -38 -26 -71q0 -8 2 -17q23 -12 63 -29q10 2 31 0q78 -70 200 -112q6 0 21 2q0 4 2 17t2 15 q-23 10 -47 39q-2 0 -10.5 10.5t-10.5 10.5q-20 41 -20 88l55 8q25 16 31 86q51 51 141 121q31 31 62 66q59 59 59 110q0 25 -47 113l-195 215q4 33 37 98q39 74 43 92q18 55 72 154q8 10 14 10q-6 0 62 -37q94 -70 194 -69q59 0 119 22q27 10 49 6q47 -6 51 -6t19.5 11.5 t19.5 11.5q16 8 41 22q8 57 27 66q4 0 86 -2q35 6 43 8q37 16 45 49q12 4 31 16q0 12 4 31q6 2 16 4q10 14 10 35q33 14 33 -8q0 -4 -1 -12.5t-19 -8.5q-29 -10 -31 -6q18 -2 27 -2q23 8 24.5 18.5t7.5 22.5l27 2q68 4 92 4l4 31q6 8 11 8h10l2 31h-10l-7 22q-44 2 -97.5 2 t-117.5 -2q-23 -2 -65 -22q4 -16 4 -49q-8 2 -20 -2q2 -6 0 -19q-41 0 -56 -10q-18 -20 -37 -39q-4 -4 -10 -4q-18 0 -39 27q-14 0 -53 -23q-45 -23 -80 -31q-28 -7 -62 -6h-18q-39 2 -39 4q-88 33 -88 39q-51 55 -74 88q-18 27 -28 64q-8 31 -23 45q-20 20 -84 39 q-6 2 -8 14q-4 12 0 19q10 10 27 10q8 0 45 -8q25 -4 28 5t11 25q0 4 4 11v6q2 2 3 2t4 12t11 35q0 2 7.5 0t11.5 0q6 8 4 16q-6 18 -15 58q0 6 3.5 14t3.5 14q0 8 -3.5 25.5t-3.5 23.5q0 18 11.5 26.5t7.5 14.5q-14 33 -45 52q-4 6 -27 18q-25 6 -71 23q-92 0 -128 -33 t-42 -133q-2 -31 -23 -31q-12 0 -39 17.5t-43 17.5q-41 0 -65 -101q-12 -2 -44 -6t-94 -47q-66 -49 -184 -108q-35 -12 -104 -43q-37 -18 -68 -58l-43 -61l-74 -72l-37 -29q-14 -2 -45 -12q-8 -12 -6 -20l4 -17q-10 -6 -22 -22q-14 -23 -15 -27q6 -6 15 -16q0 -4 6 -8.5 t6 -14.5q-39 -16 -70.5 -63t-31.5 -82q0 -16 8 -25h12q50 0 75 32q28 36 52 36q0 -18 12 -43q14 6 17 22q4 29 6 58l37 10q6 4 20 12q10 2 27 4l59 90q59 84 144 117q23 4 63 12q31 14 94 33q2 0 12.5 4t14.5 4q8 0 8 -12q0 -20 -24 -78q-104 -240 -318 -409 q-49 -41 -332.5 -218.5t-365.5 -342.5q-6 -37 97 -98.5t167 -63.5q12 0 19.5 -12.5t2.5 -22.5q-31 -23 -77 -78q-3 -5 -3 -21.5t3 -43.5l-29 -33q10 -51 39 -94q12 -2 31 -9l41 -71q18 -31 41 -45q25 -6 44.5 -6t34.5 6z" />
<glyph unicode="C" horiz-adv-x="1474" d="M1579 1413l-100 -344h-1227q39 131 143 231q117 113 242 113h942zM1288 379l-106 -381h-650q-338 0 -430 215q-21 48 -21 124q0 27 3 58q2 23 8 82l121 457l508 2l-148 -453l13 -55q18 -37 76 -49h626z" />
<glyph unicode="D" horiz-adv-x="1574" d="M1614 1069h-1419l219 344h825q135 0 252 -105.5t123 -238.5zM1638 936q0 -360 -139 -565q-113 -166 -205 -236q-184 -137 -465 -137h-813l269 938h503l-170 -571q49 -20 105 -21q102 0 213 64q178 100 233 288q29 96 33 240h436z" />
<glyph unicode="E" horiz-adv-x="1472" d="M1587 1413l-90 -344h-1335l221 344h1204zM1454 936l-98 -373h-666l-53 -192h659l-98 -369h-1202l250 934h1208z" />
<glyph unicode="F" horiz-adv-x="1392" d="M1563 1413l-99 -344h-1329l219 344h1209zM1436 936l-113 -375h-657l-154 -559h-539l260 934h1203z" />
<glyph unicode="G" horiz-adv-x="1619" d="M1673 1413l-84 -342h-1337q37 119 143 225q117 117 244 117h1034zM1552 885l-108 -402q-45 -164 -137 -272q-178 -209 -519 -209h-245q-356 0 -437 203q-33 82 -32 149q0 55 20 131l127 451h484l-121 -422q-10 -35 -11 -51q0 -41 41 -53h291q61 16 82 104l4 25l-303 -4 l217 350h647z" />
<glyph unicode="H" horiz-adv-x="1652" d="M1659 1413l-90 -344h-500l96 344h494zM797 1413l-92 -344h-492l90 344h494zM1528 936l-254 -936h-496l148 565h-359l-157 -563h-502l258 934h1362z" />
<glyph unicode="I" horiz-adv-x="743" d="M836 1413l-95 -344h-493l98 344h490zM711 936l-256 -934h-498l260 934h494z" />
<glyph unicode="J" horiz-adv-x="1579" d="M1663 1413l-94 -344h-475l96 344h473zM1534 936q-84 -334 -117 -432q-66 -201 -155 -295q-188 -207 -519 -207h-241q-348 0 -432 207q-20 49 -21 125q0 88 27 211h473l-33 -119q-10 -41 -10 -51q0 -41 41 -53h291q57 14 82 104l143 510h471z" />
<glyph unicode="K" horiz-adv-x="1736" d="M1860 1409l-326 -336h-594l334 336h586zM905 1413l-96 -344h-487l98 344h485zM1473 2h-510l-289 569l-164 -569h-496l271 934h1124l-274 -277z" />
<glyph unicode="L" horiz-adv-x="2244" d="M2105 1071l-71 338h-518l-304 -338h893zM1675 557l137 -561h515l-199 942h-998l-296 -377zM768 1075h-504l98 334l502 2zM1200 356h-629l168 588h-501l-250 -944h932z" />
<glyph unicode="M" horiz-adv-x="1875" d="M2015 1413l-96 -344h-1622l96 344h479l285 -272l348 272h510zM1886 936l-264 -934h-510l234 840l-347 -281l-286 281l-238 -840h-473l260 934h1624z" />
<glyph unicode="N" horiz-adv-x="1593" d="M1683 1413l-102 -342h-1341l96 342h465l303 -289l74 289h505zM1554 936l-249 -934h-514l157 567l-299 273l-237 -842h-469l256 936h1355z" />
<glyph unicode="O" d="M1614 1069h-1350q41 139 139 236q121 117 250 116h697q264 0 264 -280v-72zM1585 938l-8 -33q-33 -106 -113 -389q-51 -178 -157 -299q-193 -217 -516 -217h-244q-197 0 -311 74q-141 88 -142 272q0 98 31 209l102 379h478l-142 -498q-8 -35 -8 -53q0 -41 37 -51h297 q55 14 82 104l147 500z" />
<glyph unicode="P" horiz-adv-x="1710" d="M1835 1071h-1575l211 342h1157q47 0 96.5 -32.5t71.5 -77.5q39 -72 39 -232zM1798 936q-8 -51 -39 -119q-121 -252 -577 -252h-471l-158 -563h-469l256 932z" />
<glyph unicode="Q" horiz-adv-x="1558" d="M1597 1073h-1351q39 127 143 230q117 111 242 110h700q268 0 268 -280q0 -29 -2 -60zM1563 936l-93 -377q-53 -215 -174 -346q-4 -4 -26 -20l162 -195h-369l-41 45q-125 -43 -246 -43h-239q-348 0 -433 213q-20 53 -20 137q0 98 27 203l102 383h481l-143 -506 q-10 -35 -10 -49q0 -41 41 -53h194l-170 194h375l111 414h471z" />
<glyph unicode="R" horiz-adv-x="9564" d="M3754 0q10 4 10 14q0 6 -14 15l-39 22q0 74 6 92q18 -2 49 -2q2 6 8 15q0 2 6 1l5 -1q8 16 26.5 40.5t40 48t51.5 31.5l2 1q10 0 76 -25q6 -10 15 -10q12 0 45 41q45 57 75 86q74 68 179 178q18 23 41 47q23 35 28 35q4 0 18.5 -13.5t35.5 -25.5q0 -2 16 -11.5t16 -21.5 q-27 -8 -88 -55q-33 -39 -55 -70q-2 -8 -14 -24q-6 -2 -18.5 -8.5t-26.5 -26.5q-6 -8 -3 -26.5t-4 -24.5q-20 -25 -20 -49q0 -7 2 -15q16 -10 49 -20q8 2 23 0q61 -51 155 -82h17q0 4 2 13t2 11q-18 8 -37 29q-2 0 -8 7t-8 7q-16 31 -17 64q23 4 43.5 11t24.5 58 q39 37 108 88q25 20 49 48q47 43 48 79q0 18 -39 82l-150 158q2 23 29.5 72t32.5 63q14 41 55 113q6 6 12 6q-6 0 47 -27q74 -49 150 -49q45 0 92 17q20 6 37 4q37 -6 41 -4q4 0 15 7t13 9q14 4 33 16q6 41 21 47q4 0 67 -2q27 4 33 7q29 12 35 36q10 2 24 11q0 10 4 22 q4 2 13 4q8 10 8 25q12 4 20 2q8 -4 3 -14q0 -8 -15 -9q-23 -6 -22 -4q14 -2 20 -2q16 6 18.5 13.5t6.5 17.5h20q53 4 72 4l4 21q4 6 6 6h8l2 24h-8l-4 17q-34 1 -76 1t-92 -1q-16 -4 -49 -17q2 -12 2 -37q-6 0 -16 -2q2 -4 0 -12q-31 -2 -41 -8q-14 -14 -31 -29 q-14 -12 -37 17q-27 -14 -102 -39q-47 0 -95 -2q-68 25 -67 30q-45 49 -55 64l-29 63q-12 25 -76 43q-6 0 -8 11q-2 10 3 16t19 6q6 0 35 -6q18 -4 21.5 3t7.5 19q0 2 4 7v4q0 2 1 2t4 9l9 26l7 -1q6 -1 8 1q6 4 4 10q-6 14 -12 43q0 4 2 10t2 8q0 6 -2 19.5t-2 17.5 q0 12 8 18.5t6 12.5q-10 23 -35 37q-4 4 -20 14q-18 4 -56 16q-72 0 -99.5 -24.5t-33.5 -95.5q-2 -39 -39 -15q-27 16 -41 17q-33 0 -51 -72q-10 -2 -34.5 -5t-74 -37t-141.5 -77q-29 -8 -82 -31q-27 -14 -51 -43q-18 -20 -35 -43q-27 -27 -84 -73q-12 -2 -37 -9 q-2 -2 -2 -26q-6 -4 -16 -18.5t-10 -18.5q4 -4 10 -12q0 -2 5 -5t5 -12q-31 -12 -55.5 -46t-24.5 -58q0 -12 7 -19h6q40 0 60 24q22 26 42 26q0 -12 10 -31q10 4 13 16l4 41q12 4 28 8q6 4 16.5 7.5t18.5 5.5t29 35q51 86 131 114q16 2 49 8q23 10 72 25q2 0 10 3t12 3 q6 0 6 -8q0 -16 -20 -57q-80 -174 -246 -297q-35 -27 -257 -157t-286 -251q-4 -27 77 -72t128 -45q27 0 19 -26q-23 -14 -60 -56q-6 -8 0 -47l-24 -24q8 -37 33 -68q8 -2 22 -8q18 -33 64 -84q18 -4 33.5 -4t27.5 4zM5749 815h-768l104 162h565q53 0 82 -51q17 -33 17 -111z M5738 750q-8 -61 -69 -115q-25 -20 -47 -31q23 -39 22 -76q0 -27 -6 -63q-4 -18 -51 -168h-223l80 272h-234l-86 -272h-231l133 453h712zM6494 975l-45 -160h-227l47 162zM6083 977l-48 -162h-223l47 162h224zM6433 750l-125 -451l-365 -2q-170 0 -211 102q-12 29 -12 56 q0 16 4 30l74 265l221 2l-72 -246q-4 -16 -4 -25q0 -20 21 -26h160l81 295h228zM7256 979l-49 -164h-651l47 164h227l145 -139l37 139h244zM7195 750l-121 -451h-250l78 274l-148 132l-116 -408h-226l123 453h660zM8047 979l-50 -164h-653l47 164h228l147 -139l35 139h246z M7985 750l-123 -451h-250l76 274l-143 132l-117 -408h-227l125 453h659zM8737 977l-45 -162h-647l106 162h586zM8673 750l-49 -183h-323l-27 -90h321l-49 -180h-583l123 453h587zM9517 815h-770l104 162h568q49 0 82 -51q16 -37 16 -111zM9507 750q-10 -63 -70 -115 q-27 -23 -47 -31q23 -39 23 -76q0 -6 -9 -63q-4 -29 -51 -168h-221l78 272h-236l-82 -272h-233l133 453h715zM791 815h-418v166l289 2q129 0 129 -141v-27zM373 297v182h57q39 0 39 37q0 27 -20 33h-76v201h409q0 -63 -77 -97q25 -37 30 -51q12 -23 13 -63v-21 q-6 -80 -64.5 -140.5t-140.5 -80.5h-170zM373 815v166h-154l-143 -166h297zM373 750h-240l-133 -451l373 -2v182h-99l19 70h80v201zM1227 301l45 57v115h-45v-172zM1315 473v-57l-43 -58v115h43zM1315 416v57h45zM3424 977l-43 -164h-649l107 164h585zM3361 748l-49 -183 h-324l-25 -90h322l-49 -178h-586l123 451h588zM1149 819h-246l49 160l244 2zM1227 473h-172l80 285h-244l-121 -459h453l4 2v172zM1800 817l-37 162h-252l-145 -162h434zM2658 815h-690l107 166h401q66 0 122 -51.5t60 -114.5zM1184 569h407l66 -272h620q135 0 226 68 q168 125 168 385h-213q0 -63 -15 -115q-20 -68 -84.5 -119t-134.5 -51q-27 0 -49 10l82 275h-246l-115 -402l-88 406h-481l-12 -15l-43 -55z" />
<glyph unicode="S" horiz-adv-x="1626" d="M1706 1413l-92 -340h-1327q43 131 157 232q125 109 254 108h1008zM1360 131q-82 -84 -254 -131l-1118 2l108 389l774 -4q100 12 101 98q0 51 -13.5 69.5t-62.5 35.5h-395q-129 0 -188.5 64.5t-59.5 209.5v72h905q166 -20 223 -66q8 -6 111 -120q39 -98 39 -224 q0 -227 -170 -395z" />
<glyph unicode="T" horiz-adv-x="1499" d="M1647 1413l-95 -340h-1364l218 340h1241zM1116 936l-248 -934h-469l254 934h463z" />
<glyph unicode="U" horiz-adv-x="1513" d="M1655 1407l-96 -338h-467l94 338h469zM803 1407l-94 -338h-461l96 336zM1526 936l-258 -934l-750 -2q-352 0 -436 211q-23 57 -23 115q0 33 9 61l151 549h455l-146 -508q-10 -35 -10 -51q0 -41 41 -53h328l172 612h467z" />
<glyph unicode="V" horiz-adv-x="1886" d="M2171 1409l-262 -336h-662l244 340zM801 1073h-527l-69 340h514zM1792 938l-784 -936h-514l-195 936h530l76 -313l223 311z" />
<glyph unicode="W" horiz-adv-x="1855" d="M1993 1411l-84 -340h-486l99 340h471zM889 1413l-94 -342h-504l96 342h502zM1868 936l-260 -936l-475 2l-293 264l-351 -264l-489 -2l260 936h502l-105 -344l349 278l280 -278l103 344h479z" />
<glyph unicode="X" horiz-adv-x="1513" d="M1798 1411l-330 -340l-991 2l-82 334h514l39 -160l152 162zM1341 936l-247 -272l139 -664l-533 2l-38 172l-154 -174h-694l718 795l-28 137z" />
<glyph unicode="Y" horiz-adv-x="1341" d="M1563 1417l-310 -346h-1001l-74 340h514l39 -158l152 166zM1124 936l-250 -268l-182 -666h-536l190 670l-59 260z" />
<glyph unicode="Z" horiz-adv-x="1429" d="M1647 1415l-88 -342h-1360l221 340zM1534 938l-764 -559h600l-104 -377h-1233l110 381l803 553z" />
<glyph unicode="[" horiz-adv-x="862" d="M250 -266h199l-48 -158h-338l373 1360h144zM678 1323l199 -2l49 149l-355 -4l-98 -393h139z" />
<glyph unicode="\" horiz-adv-x="962" d="M565 -25l-348 1516l180 2l348 -1516z" />
<glyph unicode="]" horiz-adv-x="770" d="M233 -266h-194l-37 -156h332l358 1356h-131zM811 1452h-322l-30 -147h192l-61 -234l129 2z" />
<glyph unicode="^" horiz-adv-x="2048" d="M897 1460h252l481 -561h-235l-371 371l-373 -371h-235z" />
<glyph unicode="_" horiz-adv-x="1024" d="M0 -279h1024v-204h-1024v204z" />
<glyph unicode="`" horiz-adv-x="491" d="M397 1440h363l-217 -561h-363z" />
<glyph unicode="a" horiz-adv-x="1572" d="M1411 1069h-885l295 344h516zM1640 2h-514l-139 557h-291l-411 -557h-600l733 936h1022z" />
<glyph unicode="b" horiz-adv-x="1611" d="M1638 1069h-1470l295 350h911q268 0 268 -289q0 -28 -4 -61zM1626 934q0 -131 -160 -193q59 -100 64 -106q23 -51 22 -131v-41q-12 -203 -163 -328q-117 -100 -254 -135l-1119 2l273 932h1337zM981 451q0 61 -43 69h-320l-38 -143h317q29 0 56.5 22.5t27.5 51.5z" />
<glyph unicode="c" horiz-adv-x="1474" d="M1579 1413l-100 -344h-1227q39 131 143 231q117 113 242 113h942zM1288 379l-106 -381h-650q-338 0 -430 215q-21 48 -21 124q0 27 3 58q2 23 8 82l121 457l508 2l-148 -453l13 -55q18 -37 76 -49h626z" />
<glyph unicode="d" horiz-adv-x="1574" d="M1614 1069h-1419l219 344h825q135 0 252 -105.5t123 -238.5zM1638 936q0 -360 -139 -565q-113 -166 -205 -236q-184 -137 -465 -137h-813l269 938h503l-170 -571q49 -20 105 -21q102 0 213 64q178 100 233 288q29 96 33 240h436z" />
<glyph unicode="e" horiz-adv-x="1472" d="M1587 1413l-90 -344h-1335l221 344h1204zM1454 936l-98 -373h-666l-53 -192h659l-98 -369h-1202l250 934h1208z" />
<glyph unicode="f" horiz-adv-x="1392" d="M1563 1413l-99 -344h-1329l219 344h1209zM1436 936l-113 -375h-657l-154 -559h-539l260 934h1203z" />
<glyph unicode="g" horiz-adv-x="1587" d="M1673 1413l-84 -342h-1337q37 119 143 225q117 117 244 117h1034zM1552 885l-108 -402q-45 -164 -137 -272q-178 -209 -519 -209h-245q-356 0 -437 203q-33 82 -32 149q0 55 20 131l127 451h484l-121 -422q-10 -35 -11 -51q0 -41 41 -53h291q61 16 82 104l4 25l-303 -4 l217 350h647z" />
<glyph unicode="h" horiz-adv-x="1542" d="M1659 1413l-90 -344h-500l96 344h494zM797 1413l-92 -344h-492l90 344h494zM1528 936l-254 -936h-496l148 565h-359l-157 -563h-502l258 934h1362z" />
<glyph unicode="i" horiz-adv-x="710" d="M836 1413l-95 -344h-493l98 344h490zM711 936l-256 -934h-498l260 934h494z" />
<glyph unicode="j" horiz-adv-x="1550" d="M1663 1413l-94 -344h-475l96 344h473zM1534 936q-84 -334 -117 -432q-66 -201 -155 -295q-188 -207 -519 -207h-241q-348 0 -432 207q-20 49 -21 125q0 88 27 211h473l-33 -119q-10 -41 -10 -51q0 -41 41 -53h291q57 14 82 104l143 510h471z" />
<glyph unicode="k" horiz-adv-x="1736" d="M1860 1409l-326 -336h-594l334 336h586zM905 1413l-96 -344h-487l98 344h485zM1473 2h-510l-289 569l-164 -569h-496l271 934h1124l-274 -277z" />
<glyph unicode="l" horiz-adv-x="1230" d="M885 1413l-103 -342h-495l94 338zM1270 350l-287 -348h-995l264 934h498l-164 -584z" />
<glyph unicode="m" horiz-adv-x="1875" d="M2015 1413l-96 -344h-1622l96 344h479l285 -272l348 272h510zM1886 936l-264 -934h-510l234 840l-347 -281l-286 281l-238 -840h-473l260 934h1624z" />
<glyph unicode="n" horiz-adv-x="1515" d="M1683 1413l-102 -342h-1341l96 342h465l303 -289l74 289h505zM1554 936l-249 -934h-514l157 567l-299 273l-237 -842h-469l256 936h1355z" />
<glyph unicode="o" d="M1614 1069h-1350q41 139 139 236q121 117 250 116h697q264 0 264 -280v-72zM1585 938l-8 -33q-33 -106 -113 -389q-51 -178 -157 -299q-193 -217 -516 -217h-244q-197 0 -311 74q-141 88 -142 272q0 98 31 209l102 379h478l-142 -498q-8 -35 -8 -53q0 -41 37 -51h297 q55 14 82 104l147 500z" />
<glyph unicode="p" horiz-adv-x="1710" d="M1835 1071h-1575l211 342h1157q47 0 96.5 -32.5t71.5 -77.5q39 -72 39 -232zM1798 936q-8 -51 -39 -119q-121 -252 -577 -252h-471l-158 -563h-469l256 932z" />
<glyph unicode="q" horiz-adv-x="1558" d="M1597 1073h-1351q39 127 143 230q117 111 242 110h700q268 0 268 -280q0 -29 -2 -60zM1563 936l-93 -377q-53 -215 -174 -346q-4 -4 -26 -20l162 -195h-369l-41 45q-125 -43 -246 -43h-239q-348 0 -433 213q-20 53 -20 137q0 98 27 203l102 383h481l-143 -506 q-10 -35 -10 -49q0 -41 41 -53h194l-170 194h375l111 414h471z" />
<glyph unicode="r" horiz-adv-x="1681" d="M1774 1073h-1588l217 340h1166q47 0 95 -32.5t73 -77.5q37 -68 37 -230zM1749 936q-16 -125 -143 -236q-57 -51 -97 -63q47 -74 47 -156q0 -47 -14 -133q-8 -53 -106 -346h-459l164 563h-484l-174 -563h-477l275 934h1468z" />
<glyph unicode="s" horiz-adv-x="1587" d="M1706 1413l-92 -340h-1327q43 131 157 232q125 109 254 108h1008zM1360 131q-82 -84 -254 -131l-1118 2l108 389l774 -4q100 12 101 98q0 51 -13.5 69.5t-62.5 35.5h-395q-129 0 -188.5 64.5t-59.5 209.5v72h905q166 -20 223 -66q8 -6 111 -120q39 -98 39 -224 q0 -227 -170 -395z" />
<glyph unicode="t" d="M1647 1413l-95 -340h-1364l218 340h1241zM1116 936l-248 -934h-469l254 934h463z" />
<glyph unicode="u" horiz-adv-x="1519" d="M1655 1407l-96 -338h-467l94 338h469zM803 1407l-94 -338h-461l96 336zM1526 936l-258 -934l-750 -2q-352 0 -436 211q-23 57 -23 115q0 33 9 61l151 549h455l-146 -508q-10 -35 -10 -51q0 -41 41 -53h328l172 612h467z" />
<glyph unicode="v" horiz-adv-x="1886" d="M2171 1409l-262 -336h-662l244 340zM801 1073h-527l-69 340h514zM1792 938l-784 -936h-514l-195 936h530l76 -313l223 311z" />
<glyph unicode="w" horiz-adv-x="1855" d="M1993 1411l-84 -340h-486l99 340h471zM889 1413l-94 -342h-504l96 342h502zM1868 936l-260 -936l-475 2l-293 264l-351 -264l-489 -2l260 936h502l-105 -344l349 278l280 -278l103 344h479z" />
<glyph unicode="x" horiz-adv-x="1513" d="M1798 1411l-330 -340l-991 2l-82 334h514l39 -160l152 162zM1341 936l-247 -272l139 -664l-533 2l-38 172l-154 -174h-694l718 795l-28 137z" />
<glyph unicode="y" horiz-adv-x="1296" d="M1563 1417l-310 -346h-1001l-74 340h514l39 -158l152 166zM1124 936l-250 -268l-182 -666h-536l190 670l-59 260z" />
<glyph unicode="z" horiz-adv-x="1531" d="M1647 1415l-88 -342h-1360l221 340zM1534 938l-764 -559h600l-104 -377h-1233l110 381l803 553z" />
<glyph unicode="{" horiz-adv-x="710" d="M473 786q-72 -170 -223 -241q96 -61 98 -203q0 -86 -43 -254q-53 -217 -57 -258q-4 -59 22.5 -78.5t85.5 -21.5l27 -2l-41 -156h-45q-135 2 -174 88q-33 68 -8 205q2 18 49 209q35 143 41 184q4 31 4 59q0 141 -117 152l41 162q121 -2 189 131q51 98 73 176h129 q-24 -89 -51 -152zM557 1073l16 64q29 113 56 147q43 57 139 53l25 -2l41 158h-48q-84 2 -131 -14q-117 -43 -184 -226q-12 -37 -49 -182h135v2z" />
<glyph unicode="|" horiz-adv-x="1024" d="M410 1565h206v-2048h-206v2048z" />
<glyph unicode="}" horiz-adv-x="493" d="M268 725q6 -129 105 -195q-143 -66 -215 -245q-31 -72 -95 -353q-27 -113 -51 -147q-41 -59 -137 -59h-27l-34 -156h45q80 0 133 20q115 47 178 232q16 49 59 248q37 164 76 239q70 135 187 140l36 163q-121 2 -120 152q0 45 28 176h-139q-33 -149 -29 -215zM326 1073 q31 135 32 166q2 57 -28 78q-23 16 -84 16h-27l37 158h45q201 0 201 -193q0 -41 -10 -90q-6 -35 -29 -135h-137z" />
<glyph unicode="~" horiz-adv-x="1705" d="M1530 803v-221q-203 -137 -379 -138q-94 0 -184 31q-18 6 -70 25q-217 76 -334 75q-166 0 -385 -157v221q213 143 387 143q117 0 291 -57q2 -2 4 -2l55 -18q160 -55 240 -56q164 0 375 154z" />
<glyph unicode="&#xa1;" horiz-adv-x="675" d="M616 1473l-49 -299h-305l47 299h307zM471 1020l-100 -1020h-314l260 1020h154z" />
<glyph unicode="&#xa2;" horiz-adv-x="1222" d="M1219 776q0 -43 -7 -90l-6 -47h-377l5 29q2 14 2 39q0 80 -95 79h-45q-76 0 -104 -53q-12 -25 -25 -125l-18 -162q-8 -72 -8 -98q0 -80 92 -80h45q111 0 123 129l4 43h377l-6 -67q-18 -213 -146 -303q-113 -82 -336 -82l-26 -230h-164l26 230q-188 0 -274 63 q-102 74 -102 256q0 53 8 117l26 209q31 233 137.5 334.5t338.5 101.5l22 186h164l-23 -186q182 0 275 -53q117 -70 117 -240z" />
<glyph unicode="&#xa3;" horiz-adv-x="1492" d="M1536 1194q0 -25 -2 -43l-14 -125h-400l8 72q8 80 -88 80h-69q-98 0 -109 -84l-28 -222h383l-37 -299h-383q-20 -143 -109 -213h780l-45 -360h-1245l45 360q131 0 144 103l12 110h-168l37 299h168l24 199q27 215 174 328q139 109 361 108h106q182 0 303 -65 q152 -82 152 -248z" />
<glyph unicode="&#xa4;" horiz-adv-x="1241" d="M623 1161q-115 0 -196 -81t-81 -195q0 -117 80 -196t197 -79t196.5 80t79.5 195t-80.5 195.5t-195.5 80.5zM172 1438l205 -203q109 78 244 78q139 0 247 -78l203 203l105 -107l-203 -205q76 -106 76 -241q0 -131 -76 -242l203 -205l-105 -104l-203 203q-104 -78 -245 -78 q-143 0 -246 78l-205 -203l-104 104l202 205q-76 106 -75 242q0 137 75 241l-202 205z" />
<glyph unicode="&#xa5;" horiz-adv-x="1472" d="M1671 1489l-383 -578h133l-26 -204h-244l-82 -123h229l-22 -185h-262l-49 -399h-441l49 399h-288l22 185h256l-53 123h-270l26 204h160l-246 578h498l186 -531l314 531h493z" />
<glyph unicode="&#xa6;" horiz-adv-x="1024" d="M410 408h206v-758h-206v758zM410 1432h206v-758h-206v758z" />
<glyph unicode="&#xa7;" horiz-adv-x="1126" d="M1102 565q0 -188 -127 -295q74 -68 74 -180q0 -227 -187 -321q-117 -59 -276 -60q-193 0 -324 92q-147 102 -147 289h274q0 -164 213 -164q168 0 168 119q0 66 -176 107q-258 61 -330 94q-178 84 -178 250q0 193 127 290q-74 66 -74 185q0 195 140 293q121 84 323 84 q195 0 324 -91q147 -100 147 -286h-274q0 160 -213 159q-168 0 -168 -114q0 -66 176 -107q258 -61 330 -94q178 -84 178 -250zM807 516q0 84 -88 127q-68 33 -162 33q-176 0 -176 -131q0 -160 250 -160q176 0 176 131z" />
<glyph unicode="&#xa8;" horiz-adv-x="1034" d="M371 1440h362l-76 -199h-362zM834 1440h362l-76 -199h-362z" />
<glyph unicode="&#xa9;" horiz-adv-x="1495" d="M1552 745q0 -328 -227 -557t-555 -229q-330 0 -558 228.5t-228 557.5q0 330 228 556.5t558 226.5q328 0 555 -227.5t227 -555.5zM1405 745q0 266 -184.5 450.5t-450.5 184.5q-268 0 -453.5 -183t-185.5 -452q0 -270 184.5 -454.5t454.5 -184.5q268 0 451.5 185.5 t183.5 453.5zM1167 602q-14 -137 -118.5 -220t-245.5 -83q-197 0 -315.5 127t-118.5 324q0 201 115.5 325.5t314.5 124.5q143 0 243.5 -78t124.5 -217h-176q-12 74 -66.5 115t-129.5 41q-125 0 -191 -94q-59 -84 -59 -213q0 -121 67 -213q74 -102 191 -103q74 0 128 46 t60 118h176z" />
<glyph unicode="&#xaa;" horiz-adv-x="1034" d="M371 1440h362l-215 -561h-364zM834 1440h362l-217 -561h-363z" />
<glyph unicode="&#xab;" horiz-adv-x="913" d="M725 137l-279 316l43 213l402 286l-53 -247l-238 -166l168 -189zM297 137l-279 316l45 213l398 286l-49 -247l-238 -166l166 -189z" />
<glyph unicode="&#xac;" horiz-adv-x="1183" d="M1118 250h-233v360h-799v234h1032v-594z" />
<glyph unicode="&#xad;" horiz-adv-x="1136" d="M1006 500h-918l72 260h919z" />
<glyph unicode="&#xae;" horiz-adv-x="1495" d="M1552 745q0 -328 -227 -557t-555 -229q-330 0 -558 228.5t-228 557.5q0 330 228 556.5t558 226.5q328 0 555 -227.5t227 -555.5zM1405 745q0 268 -183.5 451.5t-451.5 183.5q-270 0 -454.5 -182t-184.5 -453q0 -272 183.5 -455.5t455.5 -183.5q270 0 452.5 184.5 t182.5 454.5zM1184 905q0 -229 -230 -229l205 -357h-192l-189 357h-168v-357h-164v844h410q154 0 229 -41q99 -67 99 -217zM1020 930q0 72 -72 96q-41 14 -133 14h-205v-237h250q80 0 115 22q45 29 45 105z" />
<glyph unicode="&#xaf;" horiz-adv-x="1089" d="M1032 1440l-18 -156h-615l19 156h614z" />
<glyph unicode="&#x2c9;" horiz-adv-x="1089" d="M1032 1440l-18 -156h-615l19 156h614z" />
<glyph unicode="&#xb0;" horiz-adv-x="813" d="M725 1180q0 -127 -90 -217.5t-217 -90.5q-129 0 -218 89.5t-89 218.5q0 127 90 217t217 90t217 -90t90 -217zM602 1180q0 76 -54 130t-130 54t-130.5 -54.5t-54.5 -129.5q0 -78 53.5 -131.5t131.5 -53.5t131 53.5t53 131.5z" />
<glyph unicode="&#xb1;" horiz-adv-x="976" d="M1159 666l-323 -4l-78 -277l-248 -2l84 276h-332l80 263h334l94 307h240l-97 -305l332 -2zM1018 -2h-920l74 258h918z" />
<glyph unicode="&#xb2;" horiz-adv-x="495" d="M819 1303q0 70 -22 108q-43 78 -107 78h-272q-74 0 -142.5 -56.5t-91.5 -129.5h635zM25 719l641 2l53 188h-322q37 31 193 97q82 35 119 63q76 57 98 166h-281v-6q0 -37 -112 -90q-170 -80 -242 -142q-137 -112 -147 -278z" />
<glyph unicode="&#xb3;" horiz-adv-x="493" d="M762 1294q0 68 -23 111q-41 76 -106 76h-277q-74 0 -142.5 -56.5t-92.5 -130.5h641zM352 1022q106 0 107 -47q0 -51 -80 -78q-25 -6 -49 -6q-47 0 -47 35q0 10 2 22h-250q-12 -70 -6 -98q29 -143 188 -143h207q104 20 181 109t77 196q0 61 -35 100q61 53 92 113h-430 l-53 -203h96z" />
<glyph unicode="&#xb4;" horiz-adv-x="1089" d="M1075 1550l-391 -370h-186l264 370h313z" />
<glyph unicode="&#xb6;" horiz-adv-x="1126" d="M1094 1348h-156v-1799h-147v1799h-173v-1799h-147v996q-203 18 -311.5 147t-108.5 334q0 172 109 313q117 156 282 156h652v-147z" />
<glyph unicode="&#xb8;" horiz-adv-x="1089" d="M793 -276q-37 -131 -129 -175q-63 -31 -213 -30h-254l45 157h260q63 0 78 50q6 43 -45 43h-123l65 231h144l-25 -90h78q133 0 133 -107q0 -16 -3 -31t-11 -48zM793 -276q-37 -131 -129 -175q-63 -31 -213 -30h-254l45 157h260q63 0 78 50q6 43 -45 43h-123l65 231h144 l-25 -90h78q133 0 133 -107q0 -16 -3 -31t-11 -48z" />
<glyph unicode="&#xb9;" horiz-adv-x="708" d="M662 1245l-123 -448h-236l125 448h234zM680 1307h-301l104 161h240z" />
<glyph unicode="&#xba;" horiz-adv-x="940" d="M860 1051q0 -176 -76.5 -242t-257.5 -66h-104q-176 0 -252 64q-82 70 -82 244v143q0 174 82 244q74 63 252 63h104q176 0 252 -63q82 -70 82 -244v-143zM563 1065v113q0 63 -2 73q-8 43 -72 43h-30q-51 0 -66 -34q-8 -20 -8 -82v-113q0 -76 4 -86q10 -29 70 -29h30 q55 0 68 33q6 12 6 82z" />
<glyph unicode="&#xbb;" horiz-adv-x="1126" d="M1051 688l-29 -237l-377 -304l29 242l227 180l-182 185l29 233zM625 688l-29 -237l-377 -304l29 242l227 180l-182 185l29 233z" />
<glyph unicode="&#xbc;" horiz-adv-x="1411" d="M461 1247l-123 -450h-236l125 450h234zM479 1309h-301l105 159h239zM823 745l-53 -180h246l51 180h-244zM1202 745l-51 -180h248l49 180h-246zM997 -8l72 252l-381 -2l66 254h243l-18 -66h139l17 66h247l-135 -506zM242 -184l495 1700h137l-497 -1700h-135z" />
<glyph unicode="&#xbd;" horiz-adv-x="1384" d="M475 1247l-123 -450h-235l125 450h233zM494 1309h-301l104 159h240zM1356 520q0 61 -19 96q-39 68 -96 68h-242q-66 0 -126 -49t-82 -115h565zM651 2h568l49 168h-287q41 35 139.5 73t139.5 70q66 49 86 146h-250v-6q0 -33 -101 -80q-150 -70 -213 -123 q-123 -101 -131 -248zM258 -178l496 1700h137l-498 -1700h-135z" />
<glyph unicode="&#xbe;" horiz-adv-x="1792" d="M821 1303q0 72 -28 122q-35 66 -101 66h-272q-76 0 -142.5 -57.5t-93.5 -130.5h637zM416 1024q104 0 104 -45q0 -51 -80 -80q-27 -8 -49 -8q-47 0 -47 37q0 10 4 22h-250q-12 -70 -6 -98q31 -147 189 -147h204q106 23 181 112.5t75 196.5q0 63 -32 102q61 53 92 115h-428 l-56 -207h99zM1182 803l-58 -193h262l54 193h-258zM1583 803l-51 -193h262l53 193h-264zM1364 0l78 268l-406 -2l72 273h258l-18 -72h147l18 72h265l-148 -541zM584 -190l495 1701h138l-498 -1701h-135z" />
<glyph unicode="&#xbf;" horiz-adv-x="1243" d="M1257 627q-20 27 -71 53l-117 59q-16 10 -49 52q-2 10 -10 32q-8 25 12 70l-404 -2q-31 -156 -18 -219q20 -90 129 -140q100 -43 100 -102q0 -80 -116 -131q-63 -29 -127 -29q-123 0 -127 103q0 41 18 100h-389q-43 -117 -43 -203q0 -272 424 -272q205 0 397 74 q248 96 361 280q66 109 61 174q0 23 -31 101zM1237 1473h-455l-100 -355h448z" />
<glyph unicode="&#xc0;" horiz-adv-x="1071" d="M-5176 2106h363l-217 -561h-363zM942 1073l-76 340h-514l-303 -340h893zM508 580l145 -582h514l-196 938h-998l-309 -356h844z" />
<glyph unicode="&#xc1;" horiz-adv-x="1071" d="M-4727 1915l-391 -370h-186l264 370h313zM942 1073l-76 340h-514l-303 -340h893zM508 580l145 -582h514l-196 938h-998l-309 -356h844z" />
<glyph unicode="&#xc2;" horiz-adv-x="1071" d="M-12878 1545h-186l-141 184l-189 -184h-184l264 370h262zM942 1073l-76 340h-514l-303 -340h893zM508 580l145 -582h514l-196 938h-998l-309 -356h844z" />
<glyph unicode="&#xc3;" horiz-adv-x="1572" d="M1411 1069h-885l295 344h516zM1640 2h-514l-139 557h-291l-411 -557h-600l733 936h1022zM1435 1747q-96 -248 -266 -248q-35 0 -78 11l-86 20q-51 12 -57 12q-49 0 -80 -69h-154q90 240 260 239q49 0 91 -10l90 -22l49 -7q49 0 78 74h153z" />
<glyph unicode="&#xc4;" horiz-adv-x="1572" d="M1411 1069h-885l295 344h516zM1640 2h-514l-139 557h-291l-411 -557h-600l733 936h1022zM748 1673h362l-76 -199h-362zM1211 1673h362l-76 -199h-362z" />
<glyph unicode="&#xc5;" horiz-adv-x="1071" d="M-11190 1702q0 -20 -2 -31q-12 -117 -105.5 -192.5t-214.5 -75.5q-111 0 -182.5 64.5t-71.5 172.5q0 131 111 221q90 74 209 74q109 0 182.5 -63.5t73.5 -169.5zM-11377 1675q0 88 -90 88q-43 0 -75.5 -26.5t-36.5 -67.5q-12 -94 90 -94q43 0 77.5 28.5t34.5 71.5z M942 1073l-76 340h-514l-303 -340h893zM508 580l145 -582h514l-196 938h-998l-309 -356h844z" />
<glyph unicode="&#xc6;" horiz-adv-x="624" d="M397 1440h363l-217 -561h-363z" />
<glyph unicode="&#xc7;" horiz-adv-x="1474" d="M1579 1413l-100 -344h-1227q39 131 143 231q117 113 242 113h942zM1288 379l-106 -381h-650q-338 0 -430 215q-21 48 -21 124q0 27 3 58q2 23 8 82l121 457l508 2l-148 -453l13 -55q18 -37 76 -49h626zM936 -223q-37 -131 -129 -175q-63 -31 -213 -30h-254l45 157h260 q63 0 78 50q6 43 -45 43h-123l65 231h144l-25 -90h78q133 0 133 -107q0 -16 -3 -31t-11 -48zM936 -223q-37 -131 -129 -175q-63 -31 -213 -30h-254l45 157h260q63 0 78 50q6 43 -45 43h-123l65 231h144l-25 -90h78q133 0 133 -107q0 -16 -3 -31t-11 -48z" />
<glyph unicode="&#xc8;" horiz-adv-x="1472" d="M-4801 2106h363l-217 -561h-363zM1587 1413l-90 -344h-1335l221 344h1204zM1454 936l-98 -373h-666l-53 -192h659l-98 -369h-1202l250 934h1208z" />
<glyph unicode="&#xc9;" horiz-adv-x="1472" d="M-4352 1915l-391 -370h-186l264 370h313zM1587 1413l-90 -344h-1335l221 344h1204zM1454 936l-98 -373h-666l-53 -192h659l-98 -369h-1202l250 934h1208z" />
<glyph unicode="&#xca;" horiz-adv-x="1472" d="M-12504 1545h-186l-141 184l-189 -184h-184l264 370h262zM1587 1413l-90 -344h-1335l221 344h1204zM1454 936l-98 -373h-666l-53 -192h659l-98 -369h-1202l250 934h1208z" />
<glyph unicode="&#xcb;" horiz-adv-x="1472" d="M-9554 1743h362l-76 -199h-362zM-9091 1743h362l-76 -199h-362zM1587 1413l-90 -344h-1335l221 344h1204zM1454 936l-98 -373h-666l-53 -192h659l-98 -369h-1202l250 934h1208z" />
<glyph unicode="&#xcc;" horiz-adv-x="743" d="M-5194 2106h363l-217 -561h-363zM836 1413l-95 -344h-493l98 344h490zM711 936l-256 -934h-498l260 934h494z" />
<glyph unicode="&#xcd;" horiz-adv-x="743" d="M-4745 1915l-391 -370h-186l264 370h313zM836 1413l-95 -344h-493l98 344h490zM711 936l-256 -934h-498l260 934h494z" />
<glyph unicode="&#xce;" horiz-adv-x="743" d="M-12897 1545h-186l-141 184l-189 -184h-184l264 370h262zM836 1413l-95 -344h-493l98 344h490zM711 936l-256 -934h-498l260 934h494z" />
<glyph unicode="&#xcf;" horiz-adv-x="743" d="M-9947 1743h362l-76 -199h-362zM-9484 1743h362l-76 -199h-362zM836 1413l-95 -344h-493l98 344h490zM711 936l-256 -934h-498l260 934h494z" />
<glyph unicode="&#xd1;" horiz-adv-x="483" d="M455 1214l-138 -514h-262l140 514h260zM475 1284h-334l115 184h266z" />
<glyph unicode="&#xd2;" d="M-4426 2106h363l-217 -561h-363zM1614 1069h-1350q41 139 139 236q121 117 250 116h697q264 0 264 -280v-72zM1585 938l-8 -33q-33 -106 -113 -389q-51 -178 -157 -299q-193 -217 -516 -217h-244q-197 0 -311 74q-141 88 -142 272q0 98 31 209l102 379h478l-142 -498 q-8 -35 -8 -53q0 -41 37 -51h297q55 14 82 104l147 500z" />
<glyph unicode="&#xd3;" d="M-3977 1915l-391 -370h-186l264 370h313zM1614 1069h-1350q41 139 139 236q121 117 250 116h697q264 0 264 -280v-72zM1585 938l-8 -33q-33 -106 -113 -389q-51 -178 -157 -299q-193 -217 -516 -217h-244q-197 0 -311 74q-141 88 -142 272q0 98 31 209l102 379h478 l-142 -498q-8 -35 -8 -53q0 -41 37 -51h297q55 14 82 104l147 500z" />
<glyph unicode="&#xd4;" d="M-12129 1545h-186l-141 184l-189 -184h-184l264 370h262zM1614 1069h-1350q41 139 139 236q121 117 250 116h697q264 0 264 -280v-72zM1585 938l-8 -33q-33 -106 -113 -389q-51 -178 -157 -299q-193 -217 -516 -217h-244q-197 0 -311 74q-141 88 -142 272q0 98 31 209 l102 379h478l-142 -498q-8 -35 -8 -53q0 -41 37 -51h297q55 14 82 104l147 500z" />
<glyph unicode="&#xd5;" d="M1614 1069h-1350q41 139 139 236q121 117 250 116h697q264 0 264 -280v-72zM1585 938l-8 -33q-33 -106 -113 -389q-51 -178 -157 -299q-193 -217 -516 -217h-244q-197 0 -311 74q-141 88 -142 272q0 98 31 209l102 379h478l-142 -498q-8 -35 -8 -53q0 -41 37 -51h297 q55 14 82 104l147 500zM1376 1749q-96 -248 -266 -248q-35 0 -78 11l-86 20q-51 12 -57 12q-49 0 -80 -69h-154q90 240 260 239q49 0 91 -10l90 -22l49 -7q49 0 78 74h153z" />
<glyph unicode="&#xd6;" d="M1614 1069h-1350q41 139 139 236q121 117 250 116h697q264 0 264 -280v-72zM1585 938l-8 -33q-33 -106 -113 -389q-51 -178 -157 -299q-193 -217 -516 -217h-244q-197 0 -311 74q-141 88 -142 272q0 98 31 209l102 379h478l-142 -498q-8 -35 -8 -53q0 -41 37 -51h297 q55 14 82 104l147 500zM654 1676h362l-76 -199h-362zM1117 1676h362l-76 -199h-362z" />
<glyph unicode="&#xd7;" horiz-adv-x="1183" d="M1096 168l-174 -174l-308 307l-307 -307l-174 174l307 307l-307 307l174 174l307 -307l308 307l174 -174l-308 -307z" />
<glyph unicode="&#xd9;" horiz-adv-x="1513" d="M-4825 2106h363l-217 -561h-363zM1655 1407l-96 -338h-467l94 338h469zM803 1407l-94 -338h-461l96 336zM1526 936l-258 -934l-750 -2q-352 0 -436 211q-23 57 -23 115q0 33 9 61l151 549h455l-146 -508q-10 -35 -10 -51q0 -41 41 -53h328l172 612h467z" />
<glyph unicode="&#xda;" horiz-adv-x="1513" d="M-4377 1915l-391 -370h-186l264 370h313zM1655 1407l-96 -338h-467l94 338h469zM803 1407l-94 -338h-461l96 336zM1526 936l-258 -934l-750 -2q-352 0 -436 211q-23 57 -23 115q0 33 9 61l151 549h455l-146 -508q-10 -35 -10 -51q0 -41 41 -53h328l172 612h467z" />
<glyph unicode="&#xdb;" horiz-adv-x="1513" d="M-12528 1545h-186l-141 184l-189 -184h-184l264 370h262zM1655 1407l-96 -338h-467l94 338h469zM803 1407l-94 -338h-461l96 336zM1526 936l-258 -934l-750 -2q-352 0 -436 211q-23 57 -23 115q0 33 9 61l151 549h455l-146 -508q-10 -35 -10 -51q0 -41 41 -53h328 l172 612h467z" />
<glyph unicode="&#xdc;" horiz-adv-x="1519" d="M1655 1407l-96 -338h-467l94 338h469zM803 1407l-94 -338h-461l96 336zM1526 936l-258 -934l-750 -2q-352 0 -436 211q-23 57 -23 115q0 33 9 61l151 549h455l-146 -508q-10 -35 -10 -51q0 -41 41 -53h328l172 612h467zM664 1676h362l-76 -199h-362zM1127 1676h362 l-76 -199h-362z" />
<glyph unicode="&#xdd;" horiz-adv-x="1341" d="M-4184 1915l-391 -370h-186l264 370h313zM1563 1417l-310 -346h-1001l-74 340h514l39 -158l152 166zM1124 936l-250 -268l-182 -666h-536l190 670l-59 260z" />
<glyph unicode="&#xdf;" horiz-adv-x="1388" d="M684 938l-274 -936l-506 2l274 938zM684 938zM786 944zM1325 938q-41 -59 -94 -80q170 -45 170 -196q0 -20 -2 -41l-4 -25l-13 -47l-53 -180q-66 -221 -237 -312q-139 -70 -396 -69q-72 0 -190 12l84 285l74 -6q129 0 165 122l56 189l6 24q8 66 -80 76q-31 4 -98 4 l71 240zM217 1071l12 41q115 391 643 389h164q428 0 428 -237q0 -18 -2 -39l-4 -25q-8 -16 -8 -24l-33 -105h-1200zM215 1071h1202h-1202zM174 944h510h-510zM784 948h541h-541z" />
<glyph unicode="&#xe0;" horiz-adv-x="1572" d="M-4707 2106h363l-217 -561h-363zM1411 1069h-885l295 344h516zM1640 2h-514l-139 557h-291l-411 -557h-600l733 936h1022z" />
<glyph unicode="&#xe1;" horiz-adv-x="1572" d="M-4258 1915l-391 -370h-186l264 370h313zM1411 1069h-885l295 344h516zM1640 2h-514l-139 557h-291l-411 -557h-600l733 936h1022z" />
<glyph unicode="&#xe2;" horiz-adv-x="1572" d="M-12409 1545h-186l-141 184l-189 -184h-184l264 370h262zM1411 1069h-885l295 344h516zM1640 2h-514l-139 557h-291l-411 -557h-600l733 936h1022z" />
<glyph unicode="&#xe3;" horiz-adv-x="1572" d="M1411 1069h-885l295 344h516zM1640 2h-514l-139 557h-291l-411 -557h-600l733 936h1022zM1435 1747q-96 -248 -266 -248q-35 0 -78 11l-86 20q-51 12 -57 12q-49 0 -80 -69h-154q90 240 260 239q49 0 91 -10l90 -22l49 -7q49 0 78 74h153z" />
<glyph unicode="&#xe4;" horiz-adv-x="1572" d="M1411 1069h-885l295 344h516zM1640 2h-514l-139 557h-291l-411 -557h-600l733 936h1022zM748 1673h362l-76 -199h-362zM1211 1673h362l-76 -199h-362z" />
<glyph unicode="&#xe5;" horiz-adv-x="1572" d="M-16093 1843q0 -20 -2 -31q-12 -117 -105.5 -192.5t-214.5 -75.5q-111 0 -182.5 64.5t-71.5 172.5q0 131 111 221q90 74 209 74q109 0 182.5 -63.5t73.5 -169.5zM-16280 1816q0 88 -90 88q-43 0 -75.5 -26.5t-36.5 -67.5q-12 -94 90 -94q43 0 77.5 28.5t34.5 71.5z M1411 1069h-885l295 344h516zM1640 2h-514l-139 557h-291l-411 -557h-600l733 936h1022z" />
<glyph unicode="&#xe7;" horiz-adv-x="1474" d="M20548 -262q-37 -131 -129 -175q-63 -31 -213 -30h-254l45 157h260q63 0 78 50q6 43 -45 43h-123l65 231h144l-25 -90h78q133 0 133 -107q0 -16 -3 -31t-11 -48zM20548 -262q-37 -131 -129 -175q-63 -31 -213 -30h-254l45 157h260q63 0 78 50q6 43 -45 43h-123l65 231 h144l-25 -90h78q133 0 133 -107q0 -16 -3 -31t-11 -48zM1579 1413l-100 -344h-1227q39 131 143 231q117 113 242 113h942zM1288 379l-106 -381h-650q-338 0 -430 215q-21 48 -21 124q0 27 3 58q2 23 8 82l121 457l508 2l-148 -453l13 -55q18 -37 76 -49h626z" />
<glyph unicode="&#xe8;" horiz-adv-x="1472" d="M-4801 2106h363l-217 -561h-363zM1587 1413l-90 -344h-1335l221 344h1204zM1454 936l-98 -373h-666l-53 -192h659l-98 -369h-1202l250 934h1208z" />
<glyph unicode="&#xe9;" horiz-adv-x="1472" d="M-4352 1915l-391 -370h-186l264 370h313zM1587 1413l-90 -344h-1335l221 344h1204zM1454 936l-98 -373h-666l-53 -192h659l-98 -369h-1202l250 934h1208z" />
<glyph unicode="&#xea;" horiz-adv-x="1472" d="M-12504 1545h-186l-141 184l-189 -184h-184l264 370h262zM1587 1413l-90 -344h-1335l221 344h1204zM1454 936l-98 -373h-666l-53 -192h659l-98 -369h-1202l250 934h1208z" />
<glyph unicode="&#xeb;" horiz-adv-x="1472" d="M-9554 1743h362l-76 -199h-362zM-9091 1743h362l-76 -199h-362zM1587 1413l-90 -344h-1335l221 344h1204zM1454 936l-98 -373h-666l-53 -192h659l-98 -369h-1202l250 934h1208z" />
<glyph unicode="&#xec;" horiz-adv-x="710" d="M-5194 2106h363l-217 -561h-363zM836 1413l-95 -344h-493l98 344h490zM711 936l-256 -934h-498l260 934h494z" />
<glyph unicode="&#xed;" horiz-adv-x="710" d="M-4745 1915l-391 -370h-186l264 370h313zM836 1413l-95 -344h-493l98 344h490zM711 936l-256 -934h-498l260 934h494z" />
<glyph unicode="&#xee;" horiz-adv-x="710" d="M-12897 1545h-186l-141 184l-189 -184h-184l264 370h262zM836 1413l-95 -344h-493l98 344h490zM711 936l-256 -934h-498l260 934h494z" />
<glyph unicode="&#xef;" horiz-adv-x="710" d="M-9947 1743h362l-76 -199h-362zM-9484 1743h362l-76 -199h-362zM836 1413l-95 -344h-493l98 344h490zM711 936l-256 -934h-498l260 934h494z" />
<glyph unicode="&#xf1;" horiz-adv-x="1515" d="M24174 1818q-96 -248 -266 -248q-35 0 -78 11l-86 20q-51 12 -57 12q-49 0 -80 -69h-154q90 240 260 239q49 0 91 -10l90 -22l49 -7q49 0 78 74h153zM1683 1413l-102 -342h-1341l96 342h465l303 -289l74 289h505zM1554 936l-249 -934h-514l157 567l-299 273l-237 -842 h-469l256 936h1355z" />
<glyph unicode="&#xf2;" d="M-4426 2106h363l-217 -561h-363zM1614 1069h-1350q41 139 139 236q121 117 250 116h697q264 0 264 -280v-72zM1585 938l-8 -33q-33 -106 -113 -389q-51 -178 -157 -299q-193 -217 -516 -217h-244q-197 0 -311 74q-141 88 -142 272q0 98 31 209l102 379h478l-142 -498 q-8 -35 -8 -53q0 -41 37 -51h297q55 14 82 104l147 500z" />
<glyph unicode="&#xf3;" d="M-3977 1915l-391 -370h-186l264 370h313zM1614 1069h-1350q41 139 139 236q121 117 250 116h697q264 0 264 -280v-72zM1585 938l-8 -33q-33 -106 -113 -389q-51 -178 -157 -299q-193 -217 -516 -217h-244q-197 0 -311 74q-141 88 -142 272q0 98 31 209l102 379h478 l-142 -498q-8 -35 -8 -53q0 -41 37 -51h297q55 14 82 104l147 500z" />
<glyph unicode="&#xf4;" d="M-12129 1545h-186l-141 184l-189 -184h-184l264 370h262zM1614 1069h-1350q41 139 139 236q121 117 250 116h697q264 0 264 -280v-72zM1585 938l-8 -33q-33 -106 -113 -389q-51 -178 -157 -299q-193 -217 -516 -217h-244q-197 0 -311 74q-141 88 -142 272q0 98 31 209 l102 379h478l-142 -498q-8 -35 -8 -53q0 -41 37 -51h297q55 14 82 104l147 500z" />
<glyph unicode="&#xf5;" d="M1614 1069h-1350q41 139 139 236q121 117 250 116h697q264 0 264 -280v-72zM1585 938l-8 -33q-33 -106 -113 -389q-51 -178 -157 -299q-193 -217 -516 -217h-244q-197 0 -311 74q-141 88 -142 272q0 98 31 209l102 379h478l-142 -498q-8 -35 -8 -53q0 -41 37 -51h297 q55 14 82 104l147 500zM1376 1749q-96 -248 -266 -248q-35 0 -78 11l-86 20q-51 12 -57 12q-49 0 -80 -69h-154q90 240 260 239q49 0 91 -10l90 -22l49 -7q49 0 78 74h153z" />
<glyph unicode="&#xf6;" d="M1614 1069h-1350q41 139 139 236q121 117 250 116h697q264 0 264 -280v-72zM1585 938l-8 -33q-33 -106 -113 -389q-51 -178 -157 -299q-193 -217 -516 -217h-244q-197 0 -311 74q-141 88 -142 272q0 98 31 209l102 379h478l-142 -498q-8 -35 -8 -53q0 -41 37 -51h297 q55 14 82 104l147 500zM654 1676h362l-76 -199h-362zM1117 1676h362l-76 -199h-362z" />
<glyph unicode="&#xf7;" horiz-adv-x="987" d="M985 594h-917l71 260h920zM391 315l51 213l236 -2l-49 -211h-238zM463 920l51 204l238 2l-47 -204z" />
<glyph unicode="&#xf9;" horiz-adv-x="1519" d="M-4825 2106h363l-217 -561h-363zM1655 1407l-96 -338h-467l94 338h469zM803 1407l-94 -338h-461l96 336zM1526 936l-258 -934l-750 -2q-352 0 -436 211q-23 57 -23 115q0 33 9 61l151 549h455l-146 -508q-10 -35 -10 -51q0 -41 41 -53h328l172 612h467z" />
<glyph unicode="&#xfa;" horiz-adv-x="1519" d="M-4377 1915l-391 -370h-186l264 370h313zM1655 1407l-96 -338h-467l94 338h469zM803 1407l-94 -338h-461l96 336zM1526 936l-258 -934l-750 -2q-352 0 -436 211q-23 57 -23 115q0 33 9 61l151 549h455l-146 -508q-10 -35 -10 -51q0 -41 41 -53h328l172 612h467z" />
<glyph unicode="&#xfb;" horiz-adv-x="1519" d="M-12528 1545h-186l-141 184l-189 -184h-184l264 370h262zM1655 1407l-96 -338h-467l94 338h469zM803 1407l-94 -338h-461l96 336zM1526 936l-258 -934l-750 -2q-352 0 -436 211q-23 57 -23 115q0 33 9 61l151 549h455l-146 -508q-10 -35 -10 -51q0 -41 41 -53h328 l172 612h467z" />
<glyph unicode="&#xfc;" horiz-adv-x="1519" d="M1655 1407l-96 -338h-467l94 338h469zM803 1407l-94 -338h-461l96 336zM1526 936l-258 -934l-750 -2q-352 0 -436 211q-23 57 -23 115q0 33 9 61l151 549h455l-146 -508q-10 -35 -10 -51q0 -41 41 -53h328l172 612h467zM664 1676h362l-76 -199h-362zM1127 1676h362 l-76 -199h-362z" />
<glyph unicode="&#xfd;" horiz-adv-x="1296" d="M-4184 1915l-391 -370h-186l264 370h313zM1563 1417l-310 -346h-1001l-74 340h514l39 -158l152 166zM1124 936l-250 -268l-182 -666h-536l190 670l-59 260z" />
<glyph unicode="&#xff;" horiz-adv-x="1296" d="M-9388 1743h362l-76 -199h-362zM-8925 1743h362l-76 -199h-362zM1563 1417l-310 -346h-1001l-74 340h514l39 -158l152 166zM1124 936l-250 -268l-182 -666h-536l190 670l-59 260z" />
<glyph unicode="&#x152;" horiz-adv-x="2969" d="M3084 1413l-90 -344h-1335l221 344h1204zM2951 936l-98 -373h-666l-53 -192h659l-98 -369h-1202l250 934h1208zM1614 1069h-1350q41 139 139 236q121 117 250 116h697q264 0 264 -280v-72zM1585 938l-8 -33q-33 -106 -113 -389q-51 -178 -157 -299q-193 -217 -516 -217 h-244q-197 0 -311 74q-141 88 -142 272q0 98 31 209l102 379h478l-142 -498q-8 -35 -8 -53q0 -41 37 -51h297q55 14 82 104l147 500z" />
<glyph unicode="&#x153;" horiz-adv-x="2969" d="M3084 1413l-90 -344h-1335l221 344h1204zM2951 936l-98 -373h-666l-53 -192h659l-98 -369h-1202l250 934h1208zM1614 1069h-1350q41 139 139 236q121 117 250 116h697q264 0 264 -280v-72zM1585 938l-8 -33q-33 -106 -113 -389q-51 -178 -157 -299q-193 -217 -516 -217 h-244q-197 0 -311 74q-141 88 -142 272q0 98 31 209l102 379h478l-142 -498q-8 -35 -8 -53q0 -41 37 -51h297q55 14 82 104l147 500z" />
<glyph unicode="&#x178;" horiz-adv-x="1341" d="M-9388 1743h362l-76 -199h-362zM-8925 1743h362l-76 -199h-362zM1563 1417l-310 -346h-1001l-74 340h514l39 -158l152 166zM1124 936l-250 -268l-182 -666h-536l190 670l-59 260z" />
<glyph unicode="&#x2c6;" horiz-adv-x="1089" d="M1044 1180h-186l-141 184l-189 -184h-184l264 370h262z" />
<glyph unicode="&#x2da;" horiz-adv-x="1089" d="M1010 1440q0 -20 -2 -31q-12 -117 -105.5 -192.5t-214.5 -75.5q-111 0 -182.5 64.5t-71.5 172.5q0 131 111 221q90 74 209 74q109 0 182.5 -63.5t73.5 -169.5zM823 1413q0 88 -90 88q-43 0 -75.5 -26.5t-36.5 -67.5q-12 -94 90 -94q43 0 77.5 28.5t34.5 71.5z" />
<glyph unicode="&#x2dc;" horiz-adv-x="1089" d="M1077 1501q-96 -248 -266 -248q-35 0 -78 11l-86 20q-51 12 -57 12q-49 0 -80 -69h-154q90 240 260 239q49 0 91 -10l90 -22l49 -7q49 0 78 74h153z" />
<glyph unicode="&#x2000;" horiz-adv-x="1052" />
<glyph unicode="&#x2001;" horiz-adv-x="2105" />
<glyph unicode="&#x2002;" horiz-adv-x="1052" />
<glyph unicode="&#x2003;" horiz-adv-x="2105" />
<glyph unicode="&#x2004;" horiz-adv-x="700" />
<glyph unicode="&#x2005;" horiz-adv-x="526" />
<glyph unicode="&#x2006;" horiz-adv-x="350" />
<glyph unicode="&#x2007;" horiz-adv-x="350" />
<glyph unicode="&#x2008;" horiz-adv-x="262" />
<glyph unicode="&#x2009;" horiz-adv-x="419" />
<glyph unicode="&#x200a;" horiz-adv-x="116" />
<glyph unicode="&#x2010;" horiz-adv-x="1136" d="M1006 500h-918l72 260h919z" />
<glyph unicode="&#x2011;" horiz-adv-x="1136" d="M1006 500h-918l72 260h919z" />
<glyph unicode="&#x2012;" horiz-adv-x="1136" d="M1006 500h-918l72 260h919z" />
<glyph unicode="&#x2013;" horiz-adv-x="1024" d="M205 512v205h614v-205h-614z" />
<glyph unicode="&#x2014;" horiz-adv-x="2048" d="M205 512v205h1638v-205h-1638z" />
<glyph unicode="&#x2018;" horiz-adv-x="491" d="M397 1440h363l-217 -561h-363z" />
<glyph unicode="&#x2019;" horiz-adv-x="491" d="M397 1440h363l-217 -561h-363z" />
<glyph unicode="&#x201c;" horiz-adv-x="1034" d="M371 1440h362l-215 -561h-364zM834 1440h362l-217 -561h-363z" />
<glyph unicode="&#x201d;" horiz-adv-x="1034" d="M371 1440h362l-215 -561h-364zM834 1440h362l-217 -561h-363z" />
<glyph unicode="&#x2026;" horiz-adv-x="1843" d="M1331 0l86 299h312l-84 -299h-314zM716 0l86 299h312l-84 -299h-314zM102 0l86 299h312l-84 -299h-314z" />
<glyph unicode="&#x202f;" horiz-adv-x="419" />
<glyph unicode="&#x2039;" horiz-adv-x="1705" d="M1442 1194v-219l-893 -365l893 -364v-219l-1178 485v199z" />
<glyph unicode="&#x203a;" horiz-adv-x="1705" d="M264 1194l1178 -483v-199l-1178 -485v219l895 364l-895 365v219z" />
<glyph unicode="&#x205f;" horiz-adv-x="526" />
<glyph unicode="&#x2122;" horiz-adv-x="1705" d="M803 1462h196l127 -332l123 332h197v-547h-135v410l-154 -410h-61l-158 410v-410h-135v547zM207 1462h485v-112h-168v-435h-149v435h-168v112z" />
<glyph unicode="&#xe000;" horiz-adv-x="1410" d="M0 1410h1410v-1410h-1410v1410z" />
<glyph unicode="&#xfb01;" horiz-adv-x="2103" d="M2229 1413l-95 -344h-493l98 344h490zM2104 936l-256 -934h-498l260 934h494zM1563 1413l-99 -344h-1329l219 344h1209zM1436 936l-113 -375h-657l-154 -559h-539l260 934h1203z" />
<glyph unicode="&#xfb02;" horiz-adv-x="2623" d="M2278 1413l-103 -342h-495l94 338zM2663 350l-287 -348h-995l264 934h498l-164 -584zM1563 1413l-99 -344h-1329l219 344h1209zM1436 936l-113 -375h-657l-154 -559h-539l260 934h1203z" />
<glyph unicode="&#xfb03;" horiz-adv-x="3495" d="M3621 1413l-95 -344h-493l98 344h490zM3496 936l-256 -934h-498l260 934h494zM2956 1413l-99 -344h-1329l219 344h1209zM2829 936l-113 -375h-657l-154 -559h-539l260 934h1203zM1563 1413l-99 -344h-1329l219 344h1209zM1436 936l-113 -375h-657l-154 -559h-539l260 934 h1203z" />
<glyph unicode="&#xfb04;" horiz-adv-x="4016" d="M3670 1413l-103 -342h-495l94 338zM4055 350l-287 -348h-995l264 934h498l-164 -584zM2956 1413l-99 -344h-1329l219 344h1209zM2829 936l-113 -375h-657l-154 -559h-539l260 934h1203zM1563 1413l-99 -344h-1329l219 344h1209zM1436 936l-113 -375h-657l-154 -559h-539 l260 934h1203z" />
</font>
</defs>
</svg>
